<svg id="svg" version="1.1" xmlns="http://www.w3.org/2000/svg" xmlns:xlink="http://www.w3.org/1999/xlink" width="400" height="400" viewBox="0, 0, 400,400"><g id="svgg"><path id="path0" d="M120.400 16.255 C 97.119 19.654,84.689 43.106,95.129 63.936 C 97.369 68.406,98.627 69.724,141.855 112.857 L 182.200 153.115 185.800 154.900 C 196.302 160.108,206.138 160.118,216.800 154.931 L 220.600 153.082 260.739 113.041 C 282.816 91.018,302.101 71.549,303.596 69.775 C 324.119 45.425,301.056 9.102,270.200 17.178 C 261.845 19.365,261.806 19.397,229.289 51.792 C 214.268 66.756,201.756 79.050,201.485 79.111 C 201.213 79.172,188.573 66.868,173.395 51.769 C 158.218 36.670,145.065 23.708,144.166 22.964 C 138.308 18.116,127.858 15.166,120.400 16.255 M46.600 90.241 C 23.008 93.675,10.707 116.998,21.304 138.200 C 23.234 142.063,23.655 142.511,52.870 171.818 C 68.232 187.227,80.800 199.989,80.800 200.176 C 80.800 200.364,68.605 212.689,53.700 227.565 C 25.450 255.761,23.084 258.268,21.199 262.002 C 14.760 274.758,17.678 293.387,27.307 301.000 C 27.585 301.220,28.800 302.230,30.006 303.244 C 33.286 306.002,37.598 308.025,43.531 309.591 C 50.441 311.414,62.123 309.002,68.925 304.346 C 70.723 303.116,149.984 223.963,152.594 220.792 C 162.304 208.993,162.452 190.949,152.930 179.739 C 150.120 176.431,75.121 101.145,71.750 98.249 C 70.183 96.902,67.520 95.031,65.833 94.090 C 63.081 92.557,61.489 91.972,56.800 90.773 C 55.140 90.348,48.310 89.992,46.600 90.241 M347.885 90.409 C 341.924 91.351,336.776 93.591,332.200 97.235 C 329.397 99.467,251.136 177.809,249.276 180.245 C 240.010 192.379,240.591 209.690,250.655 221.355 C 252.005 222.920,271.265 242.306,293.455 264.435 L 333.800 304.670 337.204 306.307 C 344.573 309.851,353.334 311.157,359.260 309.593 C 381.035 303.847,391.241 282.643,381.857 262.646 C 379.878 258.428,378.535 256.993,349.469 228.033 C 334.768 213.385,322.554 201.062,322.328 200.648 C 321.969 199.993,325.505 196.299,349.892 171.848 C 365.279 156.422,378.517 142.890,379.311 141.778 C 386.169 132.166,387.115 118.674,381.691 107.800 C 375.620 95.628,361.343 88.284,347.885 90.409 M197.600 241.605 C 190.979 242.395,185.543 244.743,180.400 249.034 C 171.738 256.262,97.412 331.730,95.508 335.231 C 79.774 364.153,110.244 395.006,139.800 380.080 L 143.400 378.262 172.263 349.484 C 192.845 328.963,201.280 320.801,201.663 321.033 C 201.958 321.213,214.440 333.548,229.400 348.444 C 244.360 363.341,257.621 376.346,258.869 377.344 C 270.135 386.355,287.797 386.180,299.291 376.943 C 310.959 367.566,315.011 349.202,308.124 336.907 C 307.536 335.858,306.859 334.624,306.618 334.164 C 306.378 333.703,305.391 332.353,304.425 331.164 C 301.885 328.035,224.618 250.665,222.000 248.629 C 214.973 243.164,206.054 240.597,197.600 241.605 " stroke="none" fill="#fbfbfb" fill-rule="evenodd"></path><path id="path1" d="M0.000 200.000 L 0.000 400.000 200.000 400.000 L 400.000 400.000 400.000 200.000 L 400.000 0.000 200.000 0.000 L 0.000 0.000 0.000 200.000 M128.400 16.384 C 139.697 18.012,138.577 17.131,173.395 51.769 C 188.573 66.868,201.213 79.172,201.485 79.111 C 201.756 79.050,214.268 66.756,229.289 51.792 C 261.806 19.397,261.845 19.365,270.200 17.178 C 301.056 9.102,324.119 45.425,303.596 69.775 C 302.101 71.549,282.816 91.018,260.739 113.041 L 220.600 153.082 216.800 154.931 C 206.138 160.118,196.302 160.108,185.800 154.900 L 182.200 153.115 141.855 112.857 C 119.665 90.716,100.405 71.311,99.055 69.736 C 83.275 51.326,93.499 21.518,117.200 16.836 C 121.553 15.976,124.686 15.849,128.400 16.384 M56.800 90.773 C 68.005 93.639,64.968 91.019,112.800 139.082 C 133.810 160.194,151.868 178.489,152.930 179.739 C 162.452 190.949,162.304 208.993,152.594 220.792 C 149.984 223.963,70.723 303.116,68.925 304.346 C 62.123 309.002,50.441 311.414,43.531 309.591 C 37.598 308.025,33.286 306.002,30.006 303.244 C 28.800 302.230,27.585 301.220,27.307 301.000 C 17.678 293.387,14.760 274.758,21.199 262.002 C 23.084 258.268,25.450 255.761,53.700 227.565 C 68.605 212.689,80.800 200.364,80.800 200.176 C 80.800 199.989,68.232 187.227,52.870 171.818 C 20.210 139.055,22.001 141.126,18.965 132.600 C 17.402 128.212,17.263 117.935,18.706 113.479 C 22.948 100.376,32.682 92.267,46.600 90.241 C 48.310 89.992,55.140 90.348,56.800 90.773 M361.101 91.218 C 380.664 95.910,390.734 118.117,381.943 137.178 C 379.865 141.683,378.412 143.254,349.892 171.848 C 325.505 196.299,321.969 199.993,322.328 200.648 C 322.554 201.062,334.768 213.385,349.469 228.033 C 385.654 264.086,384.926 263.074,384.963 277.400 C 385.004 293.753,375.853 305.215,359.260 309.593 C 353.334 311.157,344.573 309.851,337.204 306.307 L 333.800 304.670 293.455 264.435 C 271.265 242.306,252.005 222.920,250.655 221.355 C 240.591 209.690,240.010 192.379,249.276 180.245 C 251.136 177.809,329.397 99.467,332.200 97.235 C 340.318 90.771,350.446 88.662,361.101 91.218 M210.268 242.646 C 214.196 243.672,218.350 245.790,222.000 248.629 C 224.618 250.665,301.885 328.035,304.425 331.164 C 305.391 332.353,306.378 333.703,306.618 334.164 C 306.859 334.624,307.536 335.858,308.124 336.907 C 311.263 342.511,312.307 352.816,310.443 359.800 C 305.100 379.818,282.550 389.851,263.869 380.523 C 259.537 378.359,258.089 377.012,229.400 348.444 C 214.440 333.548,201.958 321.213,201.663 321.033 C 201.280 320.801,192.845 328.963,172.263 349.484 L 143.400 378.262 139.800 380.080 C 129.606 385.228,118.105 385.339,109.000 380.376 C 92.408 371.334,86.543 351.710,95.508 335.231 C 97.412 331.730,171.738 256.262,180.400 249.034 C 188.837 241.994,199.249 239.767,210.268 242.646 " stroke="none" fill="#4267ce" fill-rule="evenodd"></path></g></svg>